<svg xmlns="http://www.w3.org/2000/svg" fill="none" viewBox="0 0 300 348">
  <path fill="#8E8E8E" d="M91.8 22.4h3.6V27l6.2 2.5 6-3v-7.8l-8-8.6V6.9h4.4V10l7 7v12.5l-9.5 4.5-9.8-4.5v-7.1Z"/>
  <path stroke="#000" stroke-width="1.8" d="M99.5 7.8h4.5"/>
  <path fill="#8E8E8E" d="M97.3 6.9h8.8V3h-8.8v3.9Zm126.1 100.5h-3.6v4.6l-6.3 2.5-5.9-3v-7.8l8-8.6v-3.2h-4.4V95l-7.2 7v12.5l9.5 4.5 9.9-4.5v-7.1Z"/>
  <path stroke="#000" stroke-width="1.8" d="M215.6 92.8h-4.4"/>
  <path fill="#8E8E8E" d="M217.8 91.9h-8.7V88h8.7v3.9Z"/>
  <path stroke="#000" stroke-width="2.6" d="M213.1 88.5v-86"/>
  <path stroke="#000" stroke-width="1.8" d="m133.5 271.5-8.5-24.6"/>
  <path fill="#179E7E" d="M154.8 290.4 135.6 271l-33.7 4.6-7.5 24 3.5 2-3.5 21.5-6 1-3 4H168v-2.6l-5-1.4-4.3-10 2-3.8-7.8-8.3 2-11.6Z"/>
  <path fill="#178268" d="m106.2 291.6-3.5-2.6-1.6 13 5.1-2.5v-8Zm-1.1 14.6-2.6-.5v3.9l3.6-.1-1-3.3Z"/>
  <path stroke="#000" stroke-width="1.2" d="m126.6 326-14-3.6-7.6 2m41-11.6v2.8h-3l-2.6-2.8-4-1.5m-23.2-32.9v8.2l-3.8 1-1-5.3"/>
  <path stroke="#000" stroke-width="2.9" d="M146 296.1h-16"/>
  <path stroke="#fff" stroke-width="2.9" d="M142.4 296.1H130"/>
  <path stroke="#000" stroke-width="2.6" d="M157 181v-46m-12-44.5V2.3m25.3 86.9V40"/>
  <path stroke="#000" stroke-width="1.8" d="M157 109V93"/>
  <path fill="#8E8E8E" d="M143.5 88.1a14 14 0 1 0 28.1 0 14 14 0 0 0-28.1 0Z"/>
  <path fill="#535353" d="M153.7 93h9.4V76.7h-9.4V93Z"/>
  <path fill="#8E8E8E" d="m155.8 88.1 1.3 2.3h2.7l1.3-2.3-1.3-2.2H157l-1.3 2.2Zm11.6 31.5h-3.6V115l-6.3-2.5-5.9 3v7.8l8 8.6v3.2h-4.4V132l-7.2-7v-12.5l9.5-4.5 9.9 4.5v7Z"/>
  <path stroke="#000" stroke-width="1.8" d="M159.6 134.2h-4.4"/>
  <path fill="#8E8E8E" d="M161.8 135.1h-8.7v3.9h8.7v-4Z"/>
  <path stroke="#000" stroke-width="2.6" d="M93 185.2V25.4"/>
  <path fill="#8E8E8E" d="M158.4 182.6a33.4 33.4 0 1 0-66.8 0 33.4 33.4 0 0 0 66.8 0Z"/>
  <path fill="#535353" d="M118 190.6h14V151h-14v39.6Z"/>
  <path stroke="#000" stroke-width="1.8" d="m98 328.5 27-82"/>
  <path fill="#000" fill-rule="evenodd" d="M153.1 331.3H96.8v-3.5h56.3v3.5Z" clip-rule="evenodd"/>
  <path stroke="#000" stroke-width="2.6" d="M125 247.9v-65.3"/>
  <path fill="#8E8E8E" d="m127.6 182.6-1.3-2.2h-2.6l-1.4 2.2 1.4 2.3h2.6l1.3-2.3ZM214.7 40a22.9 22.9 0 1 0-45.7 0 22.9 22.9 0 0 0 45.7 0Z"/>
  <path fill="#535353" d="M184.9 47.8h14v-46h-14v46Z"/>
  <path fill="#8E8E8E" d="m194.5 40-1.3-2.3h-2.7l-1.3 2.3 1.3 2.3h2.7l1.3-2.3Z"/>
  <path fill="#179E7E" fill-rule="evenodd" d="m127.3 255.7-6.3 8.8 5.9 14 7.1-3-4.2-10 3.8-5.2-6.3-4.6Z" clip-rule="evenodd"/>
  <path fill="#179E7E" d="m145.9 248.4-5.2-5.1h-10l-5 5.1v10l5 5.2h10l5.2-5.2v-10Z"/>
  <path fill="#fff" d="m147.3 249.4-4.1-4.2h-8l-4.3 4.2v8l4.2 4.2h8l4.2-4.1v-8.1Z"/>
  <path fill="#179E7E" fill-rule="evenodd" d="m149.3 248.6-5.3-5.3h-9.7l-5.3 5.3v9.7l5.3 5.3h9.7l5.3-5.3v-9.7Zm-6.1-3.4 4.1 4.2v8l-4.1 4.2h-8l-4.3-4.1v-8.1l4.2-4.2h8Z" clip-rule="evenodd"/>
  <path fill="#000" d="M142 252h-2.9v2.9h3z"/>
  <path fill="#179E7E" d="M130 252h18.3v-3l-5-5h-11l-2.3 2.4v5.6Z"/>
  <path fill="#EEA71F" d="m195.9 128 10.3-10.3h14.6L231 128v14.6l-10.3 10.3h-14.6l-10.3-10.3V128Z"/>
  <path fill="#fff" d="M202 125h4.1v4.1H202z"/>
  <path fill="#EEA71F" d="M209.4 112.2h8.1v5.4h-8.1z"/>
  <path stroke="#000" stroke-width="1.4" d="M211.5 117h6m-8.1-4h8.2"/>
  <path fill="#000" d="M201.8 139.2v-1.3h1.8v-3.8h-1.4v-1a16 16 0 0 0 1-.2 4.5 4.5 0 0 0 .8-.3h1.1v5.3h1.5v1.3h-4.8Zm8.6 0-1-.1-.9-.7-.5-1-.2-1.6c0-.5 0-1 .2-1.4.1-.5.3-.8.5-1.1l.8-.7 1-.2 1.1.2.8.7.5 1 .2 1.5c0 .6 0 1-.2 1.5l-.5 1.1-.8.7-1 .2Zm0-1.1a1 1 0 0 0 .8-.5l.3-.7v-2.1l-.3-.7a.9.9 0 0 0-.4-.4 1 1 0 0 0-1 0 1 1 0 0 0-.3.4l-.2.7-.1 1v1.1l.3.7.4.4.5.1Zm0-1.5c-.3 0-.4 0-.6-.2a.8.8 0 0 1-.2-.6c0-.2 0-.4.2-.6l.6-.2c.2 0 .4 0 .5.2l.3.6c0 .3-.1.4-.3.6l-.5.2Zm3.9 2.6v-7.3h1.5v4.2l2-2.1h1.6l-2 2.1 2.2 3h-1.7l-1.3-2-.8.8v1.3h-1.5Zm8.3 2.2a5 5 0 0 1-1-.1l-.7-.3c-.2 0-.3-.2-.5-.4a1 1 0 0 1-.1-.6c0-.4.2-.7.8-1l-.4-.4a1 1 0 0 1-.2-.5l.2-.5.5-.5c-.2-.2-.4-.3-.5-.6-.2-.2-.2-.4-.2-.8 0-.3 0-.5.2-.8 0-.2.2-.4.4-.5l.7-.4a2.9 2.9 0 0 1 1.7 0h2.1v1.1h-1l.1.3.1.4c0 .3 0 .6-.2.8 0 .2-.2.4-.4.5a2 2 0 0 1-.7.3l-.8.1h-.9v.3c0 .1 0 .2.2.3h1.6c.7 0 1.2.2 1.5.4.4.2.6.5.6 1 0 .3-.1.5-.3.7-.1.3-.3.5-.6.6-.2.2-.6.3-1 .4l-1.2.2Zm0-4.8c.3 0 .5 0 .6-.2.2-.2.3-.4.3-.7l-.3-.6a.8.8 0 0 0-.5-.2c-.2 0-.4 0-.6.2l-.2.6c0 .3 0 .5.2.7l.6.2Zm.2 3.8c.4 0 .8 0 1-.2.3-.1.4-.3.4-.4 0-.2 0-.3-.2-.4h-1.3a4.3 4.3 0 0 1-.8-.1 1 1 0 0 0-.3.2v.3c0 .2 0 .3.3.4l1 .2Z"/>
  <path stroke="#666" stroke-width="2.7" d="M30.3 1.4h238.8"/>
</svg>